<svg height="100%" width="100%" id="svg" viewBox="0 0 1440 700" xmlns="http://www.w3.org/2000/svg" class="transition duration-300 ease-in-out delay-150"><defs><linearGradient id="gradient"><stop offset="5%" stop-color="#002bdc88"></stop><stop offset="95%" stop-color="#32ded488"></stop></linearGradient></defs><path d="M 0,700 C 0,700 0,233 0,233 C 87.86410256410255,251.04102564102564 175.7282051282051,269.0820512820513 245,274 C 314.2717948717949,278.9179487179487 364.9512820512821,270.71282051282054 437,261 C 509.0487179487179,251.28717948717946 602.4666666666667,240.06666666666666 683,253 C 763.5333333333333,265.93333333333334 831.1820512820514,303.0205128205128 923,295 C 1014.8179487179486,286.9794871794872 1130.805128205128,233.85128205128206 1221,216 C 1311.194871794872,198.14871794871794 1375.5974358974358,215.57435897435897 1440,233 C 1440,233 1440,700 1440,700 Z" stroke="none" stroke-width="0" fill="url(#gradient)" class="transition-all duration-300 ease-in-out delay-150"></path><defs><linearGradient id="gradient"><stop offset="5%" stop-color="#002bdcff"></stop><stop offset="95%" stop-color="#32ded4ff"></stop></linearGradient></defs><path d="M 0,700 C 0,700 0,466 0,466 C 107.44615384615386,495.57435897435903 214.89230769230772,525.1487179487181 279,504 C 343.1076923076923,482.851282051282 363.87692307692305,410.97948717948714 443,408 C 522.123076923077,405.02051282051286 659.6000000000001,470.9333333333334 751,461 C 842.3999999999999,451.0666666666666 887.723076923077,365.2871794871795 955,383 C 1022.276923076923,400.7128205128205 1111.5076923076922,521.9179487179487 1196,553 C 1280.4923076923078,584.0820512820513 1360.246153846154,525.0410256410257 1440,466 C 1440,466 1440,700 1440,700 Z" stroke="none" stroke-width="0" fill="url(#gradient)" class="transition-all duration-300 ease-in-out delay-150"></path></svg>