<svg height="100%" width="100%" id="svg" viewBox="0 0 1440 700" xmlns="http://www.w3.org/2000/svg" class="transition duration-300 ease-in-out delay-150"><defs><linearGradient id="gradient"><stop offset="5%" stop-color="#ff690088"></stop><stop offset="95%" stop-color="#32ded488"></stop></linearGradient></defs><path d="M 0,700 C 0,700 0,233 0,233 C 73.07179487179488,267.4179487179487 146.14358974358976,301.83589743589744 233,309 C 319.85641025641024,316.16410256410256 420.49743589743593,296.074358974359 514,272 C 607.5025641025641,247.92564102564103 693.8666666666667,219.86666666666665 759,213 C 824.1333333333333,206.13333333333335 868.0358974358975,220.45897435897436 944,230 C 1019.9641025641025,239.54102564102564 1127.9897435897437,244.29743589743586 1216,244 C 1304.0102564102563,243.70256410256414 1372.0051282051281,238.35128205128206 1440,233 C 1440,233 1440,700 1440,700 Z" stroke="none" stroke-width="0" fill="url(#gradient)" class="transition-all duration-300 ease-in-out delay-150"></path><defs><linearGradient id="gradient"><stop offset="5%" stop-color="#ff6900ff"></stop><stop offset="95%" stop-color="#32ded4ff"></stop></linearGradient></defs><path d="M 0,700 C 0,700 0,466 0,466 C 62.57435897435897,508.98974358974357 125.14871794871794,551.9794871794871 205,548 C 284.85128205128206,544.0205128205129 381.97948717948725,493.0717948717949 462,488 C 542.0205128205127,482.9282051282051 604.9333333333333,523.7333333333333 678,523 C 751.0666666666667,522.2666666666667 834.2871794871794,479.99487179487187 927,470 C 1019.7128205128206,460.00512820512813 1121.9179487179488,482.28717948717946 1209,487 C 1296.0820512820512,491.71282051282054 1368.0410256410255,478.8564102564103 1440,466 C 1440,466 1440,700 1440,700 Z" stroke="none" stroke-width="0" fill="url(#gradient)" class="transition-all duration-300 ease-in-out delay-150"></path></svg>